<svg id="Layer_1" xmlns="http://www.w3.org/2000/svg" viewBox="0 0 200 200"><path class="cls-1" d="M163.56438,7.90671H36.43562C16.8485,7.90671.82261,23.93259.82261,43.51972v112.96056c0,19.58721,16.02589,35.61301,35.61301,35.61301h127.12875c19.58721,0,35.61301-16.02581,35.61301-35.61301V43.51972c0-19.58713-16.02581-35.61301-35.61301-35.61301ZM165.47046,63.56795l-85.46844,79.53627c-.8747.81367-1.98968,1.22051-3.10466,1.22051-1.11244,0-2.22488-.40556-3.0983-1.21542l-39.26341-36.41683c-1.84474-1.71125-1.95408-4.59469-.24283-6.43944,1.70998-1.84474,4.59342-1.95408,6.43944-.24219l36.16002,33.53784,82.36886-76.65156c1.84474-1.71506,4.72692-1.61081,6.44071.23139s1.61081,4.72564-.23139,6.43944Z"/></svg>