<svg width="15" height="15" viewBox="0 0 15 15" fill="none" xmlns="http://www.w3.org/2000/svg">
<rect x="0.5" y="1" width="14" height="13" rx="2.5" fill="#E03C31"/>
<rect x="0.5" y="1" width="14" height="13" rx="2.5" stroke="#E03C31"/>
<path d="M5.85894 10.5C5.81489 10.5002 5.77121 10.4924 5.73043 10.477C5.68965 10.4615 5.65255 10.4388 5.62127 10.41L3.09734 8.07093C3.03499 8.01281 3 7.93418 3 7.85223C3 7.77027 3.03499 7.69164 3.09734 7.63352C3.12846 7.60444 3.16548 7.58136 3.20627 7.56561C3.24706 7.54986 3.29082 7.54175 3.335 7.54175C3.37919 7.54175 3.42295 7.54986 3.46374 7.56561C3.50453 7.58136 3.54155 7.60444 3.57267 7.63352L5.85894 9.75235L11.429 4.59021C11.4917 4.53243 11.5766 4.5 11.665 4.5C11.7534 4.5 11.8383 4.53243 11.901 4.59021C11.9324 4.61905 11.9573 4.65336 11.9743 4.69117C11.9913 4.72897 12 4.76952 12 4.81047C12 4.85142 11.9913 4.89197 11.9743 4.92978C11.9573 4.96758 11.9324 5.00189 11.901 5.03073L6.09326 10.41C6.03091 10.4673 5.94675 10.4997 5.85894 10.5Z" fill="white"/>
</svg>
